<svg width="24" height="24" viewBox="0 0 24 24" fill="none" xmlns="http://www.w3.org/2000/svg">
<path d="M0 1C0 0.447716 0.447715 0 1 0H23C23.5523 0 24 0.447715 24 1V4.33333C24 4.88562 23.5523 5.33333 23 5.33333H1C0.447716 5.33333 0 4.88562 0 4.33333V1ZM1.33333 7.66667C1.33333 7.11438 1.78105 6.66667 2.33333 6.66667H21.6667C22.219 6.66667 22.6667 7.11438 22.6667 7.66667V23C22.6667 23.5523 22.219 24 21.6667 24H2.33333C1.78105 24 1.33333 23.5523 1.33333 23V7.66667ZM8.66667 10.6667C8.48986 10.6667 8.32029 10.7369 8.19526 10.8619C8.07024 10.987 8 11.1565 8 11.3333V12.3333C8 12.8856 8.44772 13.3333 9 13.3333H15C15.5523 13.3333 16 12.8856 16 12.3333V11.3333C16 11.1565 15.9298 10.987 15.8047 10.8619C15.6797 10.7369 15.5101 10.6667 15.3333 10.6667H8.66667Z" fill="#002B99"/>
</svg>
