<svg width="26" height="26" viewBox="0 0 26 26" fill="none" xmlns="http://www.w3.org/2000/svg">
<path d="M13.5422 2C12.0265 2 10.5256 2.31039 9.12521 2.91345C7.72484 3.5165 6.45244 4.40042 5.38064 5.51472C3.21605 7.76516 2 10.8174 2 14C2 17.1826 3.21605 20.2348 5.38064 22.4853C6.45244 23.5996 7.72484 24.4835 9.12521 25.0866C10.5256 25.6896 12.0265 26 13.5422 26C16.6034 26 19.5392 24.7357 21.7038 22.4853C23.8684 20.2348 25.0845 17.1826 25.0845 14C25.0845 12.608 24.8421 11.228 24.3804 9.932L22.5336 11.852C22.6952 12.56 22.776 13.28 22.776 14C22.776 16.5461 21.8032 18.9879 20.0715 20.7882C18.3398 22.5886 15.9912 23.6 13.5422 23.6C11.0933 23.6 8.74463 22.5886 7.01296 20.7882C5.28129 18.9879 4.30845 16.5461 4.30845 14C4.30845 11.4539 5.28129 9.01212 7.01296 7.21177C8.74463 5.41143 11.0933 4.4 13.5422 4.4C14.2348 4.4 14.9273 4.484 15.6083 4.652L17.4666 2.72C16.2085 2.252 14.8811 2 13.5422 2ZM21.6218 2L17.0049 6.8V8.6L14.0616 11.66C13.8885 11.6 13.7154 11.6 13.5422 11.6C12.93 11.6 12.3428 11.8529 11.9099 12.3029C11.477 12.753 11.2338 13.3635 11.2338 14C11.2338 14.6365 11.477 15.247 11.9099 15.6971C12.3428 16.1471 12.93 16.4 13.5422 16.4C14.1545 16.4 14.7416 16.1471 15.1746 15.6971C15.6075 15.247 15.8507 14.6365 15.8507 14C15.8507 13.82 15.8507 13.64 15.793 13.46L18.7362 10.4H20.4676L25.0845 5.6H21.6218V2ZM13.5422 6.8C11.7055 6.8 9.94403 7.55857 8.64528 8.90883C7.34653 10.2591 6.61689 12.0904 6.61689 14C6.61689 15.9096 7.34653 17.7409 8.64528 19.0912C9.94403 20.4414 11.7055 21.2 13.5422 21.2C15.3789 21.2 17.1404 20.4414 18.4392 19.0912C19.7379 17.7409 20.4676 15.9096 20.4676 14H18.1591C18.1591 15.273 17.6727 16.4939 16.8069 17.3941C15.941 18.2943 14.7667 18.8 13.5422 18.8C12.3178 18.8 11.1434 18.2943 10.2776 17.3941C9.41176 16.4939 8.92534 15.273 8.92534 14C8.92534 12.727 9.41176 11.5061 10.2776 10.6059C11.1434 9.70571 12.3178 9.2 13.5422 9.2V6.8Z" fill="#002B99"/>
</svg>
