<svg width="24" height="27" viewBox="0 0 24 27" fill="none" xmlns="http://www.w3.org/2000/svg">
<path d="M9.33333 21.3333L4 16L5.88 14.12L9.33333 17.56L18.12 8.77333L20 10.6667L9.33333 21.3333ZM12 2.66667C12.3536 2.66667 12.6928 2.80714 12.9428 3.05719C13.1929 3.30724 13.3333 3.64638 13.3333 4C13.3333 4.35362 13.1929 4.69276 12.9428 4.94281C12.6928 5.19286 12.3536 5.33333 12 5.33333C11.6464 5.33333 11.3072 5.19286 11.0572 4.94281C10.8071 4.69276 10.6667 4.35362 10.6667 4C10.6667 3.64638 10.8071 3.30724 11.0572 3.05719C11.3072 2.80714 11.6464 2.66667 12 2.66667ZM21.3333 2.66667H15.76C15.2 1.12 13.7333 0 12 0C10.2667 0 8.8 1.12 8.24 2.66667H2.66667C1.95942 2.66667 1.28115 2.94762 0.781048 3.44771C0.280951 3.94781 0 4.62609 0 5.33333V24C0 24.7072 0.280951 25.3855 0.781048 25.8856C1.28115 26.3857 1.95942 26.6667 2.66667 26.6667H21.3333C22.0406 26.6667 22.7189 26.3857 23.219 25.8856C23.719 25.3855 24 24.7072 24 24V5.33333C24 4.62609 23.719 3.94781 23.219 3.44771C22.7189 2.94762 22.0406 2.66667 21.3333 2.66667Z" fill="#002B99"/>
</svg>
