<svg width="34" height="42" viewBox="0 0 34 42" fill="none" xmlns="http://www.w3.org/2000/svg">
<path d="M30.9793 36.625C29.2502 39.2083 27.4168 41.7292 24.6252 41.7708C21.8335 41.8333 20.9377 40.125 17.771 40.125C14.5835 40.125 13.6043 41.7292 10.9585 41.8333C8.22934 41.9375 6.16684 39.0833 4.41684 36.5625C0.854338 31.4167 -1.87483 21.9375 1.79184 15.5625C3.60434 12.3958 6.85434 10.3958 10.3752 10.3333C13.0418 10.2917 15.5835 12.1458 17.2293 12.1458C18.8543 12.1458 21.9377 9.91666 25.1668 10.25C26.521 10.3125 30.3127 10.7917 32.7502 14.375C32.5627 14.5 28.2293 17.0417 28.271 22.3125C28.3335 28.6042 33.7918 30.7083 33.8543 30.7292C33.7918 30.875 32.9793 33.7292 30.9793 36.625ZM19.0835 3.29166C20.6043 1.56249 23.1252 0.24999 25.2085 0.166656C25.4793 2.60416 24.5002 5.06249 23.0418 6.81249C21.6043 8.58332 19.2293 9.95832 16.896 9.77082C16.5835 7.37499 17.7502 4.87499 19.0835 3.29166Z" fill="#001D66"/>
</svg>
