<svg width="25" height="25" viewBox="0 0 25 25" fill="none" xmlns="http://www.w3.org/2000/svg">
<path d="M2.68562 6.13334V22.1333H19.8285V24.8H2.68562C0.399902 24.8 0.399902 22.1333 0.399902 22.1333V6.13334H2.68562ZM22.457 0.800003H6.91419C5.8399 0.800003 4.97133 1.73334 4.97133 2.86667V17.4C4.97133 18.5467 5.8399 19.4667 6.91419 19.4667H22.457C23.5313 19.4667 24.3999 18.5467 24.3999 17.4V2.86667C24.3999 1.73334 23.5313 0.800003 22.457 0.800003ZM7.25705 3.46667H12.9713V11.4667H7.25705V3.46667ZM22.1142 16.8H7.25705V14.1333H22.1142V16.8ZM22.1142 11.4667H15.257V8.8H22.1142V11.4667ZM22.1142 6.13334H15.257V3.46667H22.1142V6.13334Z" fill="#002B99"/>
</svg>
