<svg width="30" height="20" viewBox="0 0 30 20" fill="none" xmlns="http://www.w3.org/2000/svg">
<path d="M15 0C16.1603 0 17.2731 0.508619 18.0936 1.41397C18.9141 2.31932 19.375 3.54723 19.375 4.82759C19.375 6.10794 18.9141 7.33586 18.0936 8.24121C17.2731 9.14655 16.1603 9.65517 15 9.65517C13.8397 9.65517 12.7269 9.14655 11.9064 8.24121C11.0859 7.33586 10.625 6.10794 10.625 4.82759C10.625 3.54723 11.0859 2.31932 11.9064 1.41397C12.7269 0.508619 13.8397 0 15 0ZM6.25 3.44828C6.95 3.44828 7.6 3.65517 8.1625 4.02759C7.975 6 8.5 7.95862 9.575 9.48965C8.95 10.8138 7.7 11.7241 6.25 11.7241C5.25544 11.7241 4.30161 11.2882 3.59835 10.5122C2.89509 9.73615 2.5 8.68365 2.5 7.58621C2.5 6.48876 2.89509 5.43626 3.59835 4.66025C4.30161 3.88423 5.25544 3.44828 6.25 3.44828ZM23.75 3.44828C24.7446 3.44828 25.6984 3.88423 26.4016 4.66025C27.1049 5.43626 27.5 6.48876 27.5 7.58621C27.5 8.68365 27.1049 9.73615 26.4016 10.5122C25.6984 11.2882 24.7446 11.7241 23.75 11.7241C22.3 11.7241 21.05 10.8138 20.425 9.48965C21.5 7.95862 22.025 6 21.8375 4.02759C22.4 3.65517 23.05 3.44828 23.75 3.44828ZM6.875 17.5862C6.875 14.731 10.5125 12.4138 15 12.4138C19.4875 12.4138 23.125 14.731 23.125 17.5862V20H6.875V17.5862ZM0 20V17.931C0 16.0138 2.3625 14.4 5.5625 13.931C4.825 14.869 4.375 16.1655 4.375 17.5862V20H0ZM30 20H25.625V17.5862C25.625 16.1655 25.175 14.869 24.4375 13.931C27.6375 14.4 30 16.0138 30 17.931V20Z" fill="#002B99"/>
</svg>
