<svg width="217" height="28" viewBox="0 0 217 28" fill="none" xmlns="http://www.w3.org/2000/svg">
<path d="M21.8483 1.46283V27.2568H20.1023C19.8263 27.2568 19.5923 27.2088 19.4003 27.1128C19.2203 27.0168 19.0403 26.8548 18.8603 26.6268L3.93825 7.18684C3.96225 7.48684 3.98025 7.78083 3.99225 8.06883C4.00425 8.35683 4.01025 8.62684 4.01025 8.87884V27.2568H0.95025V1.46283H2.75025C2.90625 1.46283 3.03825 1.47483 3.14625 1.49883C3.25425 1.51083 3.35025 1.54083 3.43425 1.58883C3.51825 1.62483 3.60225 1.68483 3.68625 1.76884C3.77025 1.84083 3.86025 1.93683 3.95625 2.05683L18.8783 21.4788C18.8543 21.1668 18.8303 20.8668 18.8063 20.5788C18.7943 20.2788 18.7883 19.9968 18.7883 19.7328V1.46283H21.8483ZM44.3544 24.4128L44.3364 27.2568H28.4424V1.46283H44.3364V4.30683H31.9344V12.8748H41.9784V15.6108H31.9344V24.4128H44.3544ZM82.6458 1.46283L74.5998 27.2568H71.4678L64.9338 7.58283C64.8738 7.39083 64.8138 7.18683 64.7538 6.97083C64.7058 6.75483 64.6518 6.52683 64.5918 6.28683C64.5318 6.52683 64.4718 6.75483 64.4118 6.97083C64.3518 7.18683 64.2918 7.39083 64.2318 7.58283L57.6618 27.2568H54.5298L46.4838 1.46283H49.3818C49.6938 1.46283 49.9518 1.54083 50.1558 1.69683C50.3718 1.85283 50.5098 2.05083 50.5698 2.29083L55.8978 20.2188C55.9818 20.5428 56.0598 20.8908 56.1318 21.2628C56.2158 21.6348 56.2938 22.0308 56.3658 22.4508C56.4498 22.0308 56.5338 21.6348 56.6178 21.2628C56.7138 20.8788 56.8158 20.5308 56.9238 20.2188L62.9898 2.29083C63.0618 2.08683 63.1998 1.90083 63.4038 1.73283C63.6198 1.55283 63.8778 1.46283 64.1778 1.46283H65.1858C65.4978 1.46283 65.7498 1.54083 65.9418 1.69683C66.1338 1.85283 66.2778 2.05083 66.3738 2.29083L72.4218 20.2188C72.5298 20.5308 72.6258 20.8668 72.7098 21.2268C72.8058 21.5868 72.8958 21.9648 72.9798 22.3608C73.0398 21.9648 73.1058 21.5868 73.1778 21.2268C73.2498 20.8668 73.3278 20.5308 73.4118 20.2188L78.7578 2.29083C78.8178 2.07483 78.9498 1.88283 79.1538 1.71484C79.3698 1.54683 79.6278 1.46283 79.9278 1.46283H82.6458ZM99.4685 5.49483C99.3605 5.67484 99.2405 5.81284 99.1085 5.90883C98.9885 5.99284 98.8385 6.03484 98.6585 6.03484C98.4545 6.03484 98.2145 5.93284 97.9385 5.72883C97.6625 5.52483 97.3145 5.30283 96.8945 5.06284C96.4865 4.81083 95.9885 4.58283 95.4005 4.37884C94.8245 4.17483 94.1225 4.07283 93.2945 4.07283C92.5145 4.07283 91.8245 4.18083 91.2245 4.39683C90.6365 4.60084 90.1385 4.88284 89.7305 5.24284C89.3345 5.60283 89.0345 6.02883 88.8305 6.52083C88.6265 7.00083 88.5245 7.52283 88.5245 8.08683C88.5245 8.80684 88.6985 9.40684 89.0465 9.88684C89.4065 10.3548 89.8745 10.7568 90.4505 11.0928C91.0385 11.4288 91.6985 11.7228 92.4305 11.9748C93.1745 12.2148 93.9305 12.4668 94.6985 12.7308C95.4785 12.9948 96.2345 13.2948 96.9665 13.6308C97.7105 13.9548 98.3705 14.3688 98.9465 14.8728C99.5345 15.3768 100.002 15.9948 100.35 16.7268C100.71 17.4588 100.89 18.3588 100.89 19.4268C100.89 20.5548 100.698 21.6168 100.314 22.6128C99.9305 23.5968 99.3665 24.4548 98.6225 25.1868C97.8905 25.9188 96.9845 26.4948 95.9045 26.9148C94.8365 27.3348 93.6185 27.5448 92.2505 27.5448C90.5705 27.5448 89.0465 27.2448 87.6785 26.6448C86.3105 26.0328 85.1405 25.2108 84.1685 24.1788L85.1765 22.5228C85.2725 22.3908 85.3865 22.2828 85.5185 22.1988C85.6625 22.1028 85.8185 22.0548 85.9865 22.0548C86.1425 22.0548 86.3165 22.1208 86.5085 22.2528C86.7125 22.3728 86.9405 22.5288 87.1925 22.7208C87.4445 22.9128 87.7325 23.1228 88.0565 23.3508C88.3805 23.5788 88.7465 23.7888 89.1545 23.9808C89.5745 24.1728 90.0485 24.3348 90.5765 24.4668C91.1045 24.5868 91.6985 24.6468 92.3585 24.6468C93.1865 24.6468 93.9245 24.5328 94.5725 24.3048C95.2205 24.0768 95.7665 23.7588 96.2105 23.3508C96.6665 22.9308 97.0145 22.4328 97.2545 21.8568C97.4945 21.2808 97.6145 20.6388 97.6145 19.9308C97.6145 19.1508 97.4345 18.5148 97.0745 18.0228C96.7265 17.5188 96.2645 17.0988 95.6885 16.7628C95.1125 16.4268 94.4525 16.1448 93.7085 15.9168C92.9645 15.6768 92.2085 15.4368 91.4405 15.1968C90.6725 14.9448 89.9165 14.6568 89.1725 14.3328C88.4285 14.0088 87.7685 13.5888 87.1925 13.0728C86.6165 12.5568 86.1485 11.9148 85.7885 11.1468C85.4405 10.3668 85.2665 9.40684 85.2665 8.26683C85.2665 7.35484 85.4405 6.47284 85.7885 5.62084C86.1485 4.76884 86.6645 4.01284 87.3365 3.35283C88.0205 2.69284 88.8545 2.16484 89.8385 1.76884C90.8345 1.37283 91.9745 1.17483 93.2585 1.17483C94.6985 1.17483 96.0065 1.40283 97.1825 1.85884C98.3705 2.31484 99.4145 2.97483 100.314 3.83883L99.4685 5.49483ZM113.597 13.3608C114.425 13.3608 115.127 13.2588 115.703 13.0548C116.291 12.8388 116.771 12.5448 117.143 12.1728C117.515 11.8008 117.785 11.3688 117.953 10.8768C118.121 10.3728 118.205 9.83284 118.205 9.25684C118.205 8.10484 117.827 7.20483 117.071 6.55683C116.327 5.90883 115.169 5.58483 113.597 5.58483H111.149V13.3608H113.597ZM126.521 27.2568H121.013C119.993 27.2568 119.261 26.8728 118.817 26.1048L114.461 18.4908C114.257 18.1668 114.029 17.9328 113.777 17.7888C113.525 17.6328 113.165 17.5548 112.697 17.5548H111.149V27.2568H105.065V1.03084H113.597C115.493 1.03084 117.107 1.22884 118.439 1.62484C119.783 2.00883 120.875 2.54883 121.715 3.24483C122.567 3.94083 123.185 4.76284 123.569 5.71084C123.953 6.65884 124.145 7.69083 124.145 8.80683C124.145 9.65883 124.031 10.4628 123.803 11.2188C123.575 11.9748 123.239 12.6768 122.795 13.3248C122.351 13.9608 121.799 14.5308 121.139 15.0348C120.491 15.5388 119.741 15.9528 118.889 16.2768C119.285 16.4808 119.657 16.7388 120.005 17.0508C120.353 17.3508 120.665 17.7108 120.941 18.1308L126.521 27.2568ZM154.008 14.1348C154.008 16.0308 153.678 17.7948 153.018 19.4268C152.37 21.0588 151.452 22.4808 150.264 23.6928C149.076 24.8928 147.642 25.8348 145.962 26.5188C144.294 27.2028 142.44 27.5448 140.4 27.5448C138.36 27.5448 136.5 27.2028 134.82 26.5188C133.14 25.8348 131.7 24.8928 130.5 23.6928C129.312 22.4808 128.388 21.0588 127.728 19.4268C127.08 17.7948 126.756 16.0308 126.756 14.1348C126.756 12.2388 127.08 10.4748 127.728 8.84284C128.388 7.21084 129.312 5.79484 130.5 4.59483C131.7 3.39483 133.14 2.45283 134.82 1.76884C136.5 1.08484 138.36 0.742835 140.4 0.742835C142.44 0.742835 144.294 1.09083 145.962 1.78683C147.642 2.47083 149.076 3.41284 150.264 4.61284C151.452 5.81283 152.37 7.22883 153.018 8.86083C153.678 10.4928 154.008 12.2508 154.008 14.1348ZM147.78 14.1348C147.78 12.8388 147.612 11.6748 147.276 10.6428C146.94 9.59884 146.454 8.71684 145.818 7.99683C145.194 7.27684 144.426 6.72484 143.514 6.34083C142.602 5.95684 141.564 5.76484 140.4 5.76484C139.224 5.76484 138.174 5.95684 137.25 6.34083C136.338 6.72484 135.564 7.27684 134.928 7.99683C134.304 8.71684 133.824 9.59884 133.488 10.6428C133.152 11.6748 132.984 12.8388 132.984 14.1348C132.984 15.4428 133.152 16.6188 133.488 17.6628C133.824 18.6948 134.304 19.5708 134.928 20.2908C135.564 21.0108 136.338 21.5628 137.25 21.9468C138.174 22.3188 139.224 22.5048 140.4 22.5048C141.564 22.5048 142.602 22.3188 143.514 21.9468C144.426 21.5628 145.194 21.0108 145.818 20.2908C146.454 19.5708 146.94 18.6948 147.276 17.6628C147.612 16.6188 147.78 15.4428 147.78 14.1348ZM183.329 14.1348C183.329 16.0308 182.999 17.7948 182.339 19.4268C181.691 21.0588 180.773 22.4808 179.585 23.6928C178.397 24.8928 176.963 25.8348 175.283 26.5188C173.615 27.2028 171.761 27.5448 169.721 27.5448C167.681 27.5448 165.821 27.2028 164.141 26.5188C162.461 25.8348 161.021 24.8928 159.821 23.6928C158.633 22.4808 157.709 21.0588 157.049 19.4268C156.401 17.7948 156.077 16.0308 156.077 14.1348C156.077 12.2388 156.401 10.4748 157.049 8.84284C157.709 7.21084 158.633 5.79484 159.821 4.59483C161.021 3.39483 162.461 2.45283 164.141 1.76884C165.821 1.08484 167.681 0.742835 169.721 0.742835C171.761 0.742835 173.615 1.09083 175.283 1.78683C176.963 2.47083 178.397 3.41284 179.585 4.61284C180.773 5.81283 181.691 7.22883 182.339 8.86083C182.999 10.4928 183.329 12.2508 183.329 14.1348ZM177.101 14.1348C177.101 12.8388 176.933 11.6748 176.597 10.6428C176.261 9.59884 175.775 8.71684 175.139 7.99683C174.515 7.27684 173.747 6.72484 172.835 6.34083C171.923 5.95684 170.885 5.76484 169.721 5.76484C168.545 5.76484 167.495 5.95684 166.571 6.34083C165.659 6.72484 164.885 7.27684 164.249 7.99683C163.625 8.71684 163.145 9.59884 162.809 10.6428C162.473 11.6748 162.305 12.8388 162.305 14.1348C162.305 15.4428 162.473 16.6188 162.809 17.6628C163.145 18.6948 163.625 19.5708 164.249 20.2908C164.885 21.0108 165.659 21.5628 166.571 21.9468C167.495 22.3188 168.545 22.5048 169.721 22.5048C170.885 22.5048 171.923 22.3188 172.835 21.9468C173.747 21.5628 174.515 21.0108 175.139 20.2908C175.775 19.5708 176.261 18.6948 176.597 17.6628C176.933 16.6188 177.101 15.4428 177.101 14.1348ZM216.393 1.03084V27.2568H211.029V12.1728C211.029 11.8248 211.035 11.4468 211.047 11.0388C211.071 10.6308 211.107 10.2168 211.155 9.79684L204.189 23.2788C203.973 23.6988 203.679 24.0168 203.307 24.2328C202.947 24.4488 202.533 24.5568 202.065 24.5568H201.237C200.769 24.5568 200.349 24.4488 199.977 24.2328C199.617 24.0168 199.329 23.6988 199.113 23.2788L192.147 9.76083C192.183 10.1928 192.213 10.6188 192.237 11.0388C192.261 11.4468 192.273 11.8248 192.273 12.1728V27.2568H186.909V1.03084H191.553C191.817 1.03084 192.045 1.03684 192.237 1.04883C192.441 1.06083 192.621 1.09684 192.777 1.15684C192.933 1.21684 193.071 1.31284 193.191 1.44484C193.323 1.56484 193.449 1.73884 193.569 1.96683L200.319 15.2688C200.559 15.7248 200.787 16.1988 201.003 16.6908C201.231 17.1828 201.447 17.6868 201.651 18.2028C201.855 17.6748 202.065 17.1588 202.281 16.6548C202.509 16.1508 202.749 15.6708 203.001 15.2148L209.733 1.96683C209.853 1.73884 209.973 1.56484 210.093 1.44484C210.225 1.31284 210.369 1.21684 210.525 1.15684C210.681 1.09684 210.855 1.06083 211.047 1.04883C211.251 1.03684 211.485 1.03084 211.749 1.03084H216.393Z" fill="white"/>
</svg>
